<?xml version="1.0" standalone="no"?>
<!DOCTYPE svg PUBLIC "-//W3C//DTD SVG 20010904//EN"
 "http://www.w3.org/TR/2001/REC-SVG-20010904/DTD/svg10.dtd">
<svg version="1.0" xmlns="http://www.w3.org/2000/svg"
 width="1024.000000pt" height="1024.000000pt" viewBox="0 0 1024.000000 1024.000000"
 preserveAspectRatio="xMidYMid meet">

<g transform="translate(0.000000,1024.000000) scale(0.100000,-0.100000)"
fill="#000000" stroke="none">
<path d="M4560 8174 c-622 -98 -1167 -448 -1479 -951 -189 -305 -296 -626
-326 -978 -4 -44 -12 -83 -19 -87 -6 -4 -33 -8 -61 -8 -72 0 -226 -26 -330
-56 -95 -27 -265 -103 -350 -156 -163 -103 -364 -296 -473 -456 -72 -105 -158
-278 -197 -397 -114 -342 -108 -778 17 -1134 45 -128 140 -314 216 -421 80
-113 255 -292 369 -377 157 -117 329 -203 518 -258 195 -56 212 -58 755 -62
389 -2 507 -6 512 -16 4 -6 18 -54 32 -105 57 -207 169 -357 321 -432 157 -77
350 -48 474 71 l44 42 76 -13 c42 -7 191 -15 332 -17 l255 -5 24 -45 c94 -178
354 -223 597 -103 194 96 354 276 473 534 28 60 45 86 57 86 10 1 189 1 398 0
491 -1 610 11 835 86 243 81 458 219 659 423 302 308 487 700 532 1130 15 141
7 423 -15 546 -134 750 -696 1352 -1395 1496 -66 14 -155 22 -283 26 l-186 6
-7 36 c-16 83 -99 311 -155 424 -111 226 -254 422 -436 597 -251 242 -562 420
-899 515 -188 53 -292 67 -545 70 -184 3 -269 1 -340 -11z m559 -300 c618 -90
1108 -447 1391 -1013 84 -167 148 -372 165 -526 9 -83 22 -111 56 -125 30 -13
46 -12 164 14 105 23 312 21 438 -5 621 -126 1084 -636 1178 -1299 20 -138 15
-405 -9 -540 -61 -337 -226 -645 -464 -865 l-62 -58 -17 105 c-65 407 -317
881 -620 1162 -129 120 -296 235 -459 316 -134 66 -155 96 -196 268 -58 245
-144 468 -255 653 l-21 36 40 52 c119 158 168 349 126 492 -32 111 -102 190
-212 242 -58 27 -70 29 -150 25 -73 -4 -97 -10 -151 -37 -77 -39 -166 -125
-207 -199 -29 -53 -29 -53 -69 -47 -175 28 -276 36 -418 33 l-158 -2 -23 56
c-51 126 -129 213 -235 265 -50 25 -67 28 -156 28 -88 0 -107 -3 -158 -27
-148 -70 -242 -248 -220 -421 4 -34 8 -66 8 -70 0 -5 -33 -26 -74 -48 -220
-118 -407 -251 -634 -453 -254 -227 -400 -465 -463 -758 -27 -124 -25 -363 4
-481 52 -209 127 -343 271 -487 70 -69 120 -108 181 -142 47 -27 89 -49 93
-51 4 -1 -1 -28 -12 -60 -49 -142 -85 -371 -97 -619 l-7 -148 -466 0 c-590 0
-640 7 -878 120 -348 165 -614 466 -733 830 -52 160 -64 246 -65 460 0 255 28
390 121 586 88 185 267 396 428 504 229 153 516 229 761 200 128 -14 143 -13
169 13 23 23 23 30 29 238 8 320 51 515 167 757 270 561 775 936 1390 1031 96
15 394 12 509 -5z m-251 -1199 c47 -20 79 -50 103 -97 24 -47 24 -48 -5 -48
-35 0 -201 -36 -276 -59 -36 -12 -66 -21 -67 -21 -7 0 -2 69 7 99 32 113 136
168 238 126z m1421 -80 c68 -34 108 -121 97 -205 -12 -89 -87 -220 -184 -321
l-53 -57 61 -93 c123 -189 195 -360 266 -634 24 -93 56 -193 69 -221 39 -79
108 -142 231 -208 305 -165 508 -344 678 -596 75 -111 185 -337 230 -472 54
-161 102 -444 82 -476 -10 -17 -126 -74 -214 -106 -166 -59 -233 -66 -665 -66
l-396 0 19 68 c63 227 154 402 279 536 l36 38 -55 -27 c-87 -44 -169 -103
-240 -175 -113 -112 -171 -212 -286 -486 -187 -450 -327 -634 -532 -703 -117
-40 -210 -21 -239 46 -12 30 -14 57 -9 128 17 250 18 303 6 356 -7 30 -18 64
-24 76 -10 21 -14 16 -49 -65 -33 -74 -122 -309 -133 -349 -7 -26 -422 -11
-596 22 -42 8 -103 23 -134 35 -32 11 -63 20 -69 20 -6 0 -20 -19 -32 -43 -98
-202 -290 -192 -416 24 -132 226 -154 730 -50 1149 14 58 27 106 28 107 1 2
44 -7 96 -19 78 -18 125 -22 274 -23 236 0 324 21 540 128 l120 59 -60 -6
c-146 -15 -435 -18 -564 -7 -222 21 -427 80 -577 168 -107 62 -237 194 -286
288 -67 129 -83 206 -83 400 0 146 3 183 24 260 46 180 131 321 293 490 281
294 602 503 936 608 397 126 909 138 1159 27 25 -11 47 -19 48 -18 2 2 22 41
45 88 48 95 106 184 141 216 59 53 133 68 188 39z"/>
<path d="M5462 5754 c-108 -55 -155 -231 -94 -351 40 -77 121 -125 185 -109
44 11 91 51 116 101 22 41 26 63 26 130 0 67 -4 89 -28 137 -44 90 -132 129
-205 92z"/>
<path d="M3785 5435 c-84 -30 -113 -110 -72 -191 36 -70 88 -115 222 -190 19
-10 20 -24 23 -200 4 -204 -5 -275 -40 -320 -25 -30 -91 -63 -129 -64 -15 0
-38 -10 -53 -21 -22 -17 -26 -28 -24 -57 9 -99 167 -103 294 -6 l44 34 53 -43
c79 -64 146 -90 250 -95 67 -3 98 0 132 13 82 31 108 93 59 142 -23 23 -31 25
-72 19 -131 -19 -147 -19 -200 4 -61 26 -107 74 -121 127 -6 21 -11 131 -11
248 l1 210 65 29 c77 35 157 102 184 157 40 78 14 165 -58 197 -53 23 -487 29
-547 7z"/>
</g>
</svg>
